<svg xmlns="http://www.w3.org/2000/svg" xmlns:xlink="http://www.w3.org/1999/xlink" width="32" height="32" viewBox="0 0 32 32"><defs><linearGradient id="a"><stop offset="0" stop-color="#000092"/><stop offset="1" stop-color="#ff00f3"/></linearGradient><linearGradient id="b" x1="2" x2="28" y1="16" y2="16" gradientUnits="userSpaceOnUse" xlink:href="#a"/></defs><path fill="url(#b)" d="M 16 2 C 8.273937 2 1.9999948 8.274 2 16 C 1.9999948 23.7261 8.273937 30 16 30 C 23.726063 30 30.000005 23.7261 30 16 C 30.000005 8.274 23.726063 2 16 2 z M 15.550781 3.0214844 L 15.550781 5.5195312 C 14.064492 5.5829542 12.591123 5.9615443 11.232422 6.6542969 L 9.9785156 4.4804688 C 11.653617 3.6037869 13.544082 3.0900466 15.550781 3.0214844 z M 16.550781 3.0273438 C 18.550954 3.1111528 20.435371 3.6328957 22.101562 4.5195312 L 20.845703 6.6953125 C 19.497041 5.9930968 18.032156 5.6028792 16.550781 5.5253906 L 16.550781 3.0273438 z M 9.1113281 4.984375 L 10.363281 7.1503906 C 10.002752 7.3801244 9.6491444 7.6262577 9.3125 7.9042969 C 8.4639575 8.6051366 7.7591955 9.4206334 7.1875 10.306641 L 5.0195312 9.0566406 C 6.0616465 7.4108345 7.4600478 6.0186117 9.1113281 4.984375 z M 22.960938 5.0292969 C 24.594573 6.0674258 25.976212 7.4581166 27.005859 9.0976562 L 24.839844 10.349609 C 24.280454 9.4737126 23.591338 8.6649798 22.761719 7.9667969 C 22.424656 7.6831353 22.070743 7.4319977 21.708984 7.1972656 L 22.960938 5.0292969 z M 16.044922 6.4980469 C 18.204906 6.5081844 20.360919 7.2542219 22.117188 8.7324219 C 25.629715 11.688422 26.525992 16.723938 24.25 20.710938 A 0.50038018 0.50038018 0 0 0 24.365234 21.341797 A 0.50038018 0.50038018 0 0 0 24.367188 21.34375 A 0.50005 0.50005 0 0 0 24.503906 21.458984 L 27.003906 22.902344 C 24.705112 26.561464 20.644997 29 16 29 C 11.372299 29 7.3248582 26.579715 5.0214844 22.943359 L 7.5957031 21.457031 A 0.50005 0.50005 0 0 0 7.7382812 20.707031 A 0.50016188 0.50016188 0 0 0 7.7070312 20.634766 C 5.4678705 16.626966 6.4115233 11.599281 9.9511719 8.6757812 C 11.720984 7.2140312 13.884938 6.4879094 16.044922 6.4980469 z M 15.5 9 L 15.5 16.091797 C 14.920972 16.30028 14.5 16.853163 14.5 17.5 C 14.5 18.146837 14.920972 18.697767 15.5 18.90625 L 15.5 20 L 16.5 20 L 16.5 18.90625 C 17.079028 18.697767 17.5 18.146837 17.5 17.5 C 17.5 16.853163 17.079028 16.30028 16.5 16.091797 L 16.5 9 L 15.5 9 z M 4.5117188 9.9160156 L 6.6855469 11.171875 C 5.9888193 12.519038 5.5940127 13.995377 5.5214844 15.5 L 3.0253906 15.5 C 3.1019194 13.488013 3.6232564 11.591941 4.5117188 9.9160156 z M 27.509766 9.9609375 C 28.384288 11.625986 28.89875 13.505601 28.974609 15.5 L 26.478516 15.5 C 26.406681 14.012278 26.021142 12.550774 25.337891 11.214844 L 27.509766 9.9609375 z M 3.0253906 16.5 L 5.5195312 16.5 C 5.5889192 17.976841 5.9722538 19.452018 6.6855469 20.828125 L 4.5117188 22.083984 C 3.6232059 20.408019 3.1019218 18.512076 3.0253906 16.5 z M 26.478516 16.5 L 28.974609 16.5 C 28.898735 18.494811 28.38264 20.373772 27.507812 22.039062 L 25.335938 20.785156 C 26.034752 19.421964 26.410024 17.9625 26.478516 16.5 z M 16 17 C 16.282065 17 16.5 17.218 16.5 17.5 C 16.5 17.7821 16.282065 18 16 18 C 15.717935 18 15.5 17.7821 15.5 17.5 C 15.5 17.218 15.717935 17 16 17 z M 10.5 23 A 0.50005 0.50005 0 0 0 10 23.5 L 10 25.5 A 0.50005 0.50005 0 0 0 10.5 26 L 21.5 26 A 0.50005 0.50005 0 0 0 22 25.5 L 22 23.5 A 0.50005 0.50005 0 0 0 21.5 23 L 10.5 23 z M 11 24 L 21 24 L 21 25 L 11 25 L 11 24 z " color="#000" font-family="sans-serif" font-weight="400" overflow="visible" style="line-height:normal;text-indent:0;text-align:start;text-decoration-line:none;text-decoration-style:solid;text-decoration-color:#000;text-transform:none;block-progression:tb;isolation:auto;mix-blend-mode:normal"/></svg>