<svg xmlns="http://www.w3.org/2000/svg" width="48" height="48" viewBox="0 0 48 48"><g transform="translate(-3527.898 -343.283)"><path fill="#04dbdd" d="m 3575.8984,367.28265 a 24,24 0 0 0 -24,-24 24,24 0 0 0 -24,24 24,24 0 0 0 24,24 24,24 0 0 0 24,-24 z"/><g fill="#fff" transform="translate(949.395 41.17)"><path fill-rule="evenodd" d="m 2602.7285,315.86611 a 7.2723795,7.2723795 0 0 0 -0.7265,0.0137 l -5.0059,0.34375 a 3.5015477,3.5015477 0 0 0 -2.8906,1.92578 l -1.752,3.49414 a 4.8932619,4.8932619 0 0 1 -0.1269,0.22656 c 0.051,-0.002 0.1038,-0.008 0.1543,-0.008 l 20.2324,0 c 0.053,0 0.1084,0.006 0.1621,0.008 a 4.8932602,4.8932602 0 0 1 -0.1289,-0.22656 l -1.752,-3.49414 a 3.5015472,3.5015472 0 0 0 -2.8906,-1.92578 l -5.0059,-0.34375 a 7.2723795,7.2723795 0 0 0 -0.2695,-0.0137 z"/><path fill-rule="evenodd" d="m 2592.3809,-697.5 c -0.508,0 -1.0153,0.14373 -1.252,0.36328 0,0 0,0.002 0,0.002 a 0.50005,0.50005 0 0 1 -0.012,0.0117 l -0.2344,0.23633 A 1.2929799,1.2929799 0 0 0 2590.5039,-696 l 1.6387,0 c 0.528,0 1.0161,0.27926 1.2851,0.73438 l 1.5196,2.57031 c 0.1818,0.3075 -0.04,0.69531 -0.3965,0.69531 l -4.0469,0 0,0.53125 c 0.2262,0.56183 0.797,0.96875 1.4941,0.96875 l 21.0118,0 c 0.697,0 1.2679,-0.40692 1.4941,-0.96875 l 0,-0.53125 -4.0469,0 c -0.3567,0 -0.5783,-0.38781 -0.3965,-0.69531 l 1.5196,-2.57031 c 0.269,-0.45512 0.7571,-0.73438 1.2851,-0.73438 l 1.6368,0 a 1.2929799,1.2929799 0 0 0 -0.377,-0.88672 l -0.2109,-0.21289 a 0.50005,0.50005 0 0 1 0,-0.002 0.50005,0.50005 0 0 1 -0.037,-0.0332 c -0.2354,-0.22105 -0.746,-0.36523 -1.2559,-0.36523 l -20.2324,0 z m 5.5742,1.5 9.0918,0 a 0.46122619,0.46122619 0 0 1 0.3985,0.69531 l -1.5215,2.57031 A 1.4966815,1.4966815 0 0 1 2604.6367,-692 l -4.2676,0 a 1.4966496,1.4966496 0 0 1 -1.2871,-0.73438 l -1.5215,-2.57031 A 0.46123611,0.46123611 0 0 1 2597.9551,-696 Z" transform="translate(0 1020.362)"/><path fill-rule="evenodd" d="m 2590.502,330.39931 a 2,2 0 0 0 1.998,1.96289 l 20,0 a 2,2 0 0 0 1.998,-1.96289 c -0.4255,0.28886 -0.939,0.46289 -1.4921,0.46289 l -21.0118,0 c -0.5531,0 -1.0666,-0.17403 -1.4921,-0.46289 z"/><path d="M2596.5 333.3622l.0001 1.98994a1.0040331 1.0040331 0 01-1.0001 1.00405l-1.5049.006a.99116695.99116695 0 01-.995-1.00541l.029-1.98028M2612 333.3622l.0001 1.98994A1.0040331 1.0040331 0 012611 336.35619l-1.5049.006a.99116695.99116695 0 01-.995-1.00541l.029-1.98028"/></g></g></svg>