<svg xmlns="http://www.w3.org/2000/svg" width="56" height="56" viewBox="0 0 56 56"><defs><clipPath id="a" clipPathUnits="userSpaceOnUse"><path fill="#e81e63" stroke-linecap="round" stroke-linejoin="round" stroke-width=".5" d="m 534.40209,2935.2612 40.8819,0 c 4.18771,0 7.55905,3.3714 7.55905,7.5591 l 0,40.8816 c 0,4.1877 -3.37134,7.5591 -7.55905,7.5591 l -40.8819,0 c -4.18772,0 -7.55906,-3.3714 -7.55906,-7.5591 l 0,-40.8816 c 0,-4.1877 3.37134,-7.5591 7.55906,-7.5591 z"/></clipPath></defs><g transform="matrix(3.77953 0 0 3.77953 -526.843 -4025.78)"><path fill="#e81e63" d="m 141.3939,1065.1546 10.81667,0 c 1.108,0 2,0.892 2,2 l 0,10.8166 c 0,1.108 -0.892,2 -2,2 l -10.81667,0 c -1.108,0 -2,-0.892 -2,-2 l 0,-10.8166 c 0,-1.108 0.892,-2 2,-2 z"/><g fill="#c51a54" clip-path="url(#a)" transform="matrix(.26458 0 0 .26458 0 288.533)"><g style="line-height:normal;text-indent:0;text-align:start;text-decoration-line:none;text-decoration-style:solid;text-decoration-color:#000;text-transform:none;block-progression:tb;white-space:normal;isolation:auto;mix-blend-mode:normal;solid-color:#000;solid-opacity:1" stroke-linecap="round" stroke-linejoin="round" stroke-width=".132" color="#000" font-family="sans-serif" font-weight="400"><path d="M565.03906 2960.0117l0 .029 42.42641 42.4264 0-.029zM565.03906 2960.041l-.84961.8574 42.42641 42.4264.84961-.8574z"/><path d="m 564.18945,2960.8984 -0.0215,1.3946 42.42641,42.4264 0.0215,-1.3946 z"/><path d="m 564.16797,2962.293 c 3.8e-4,0.1398 -0.11325,0.2503 -0.25195,0.25 l 42.42641,42.4264 c 0.1387,3e-4 0.25233,-0.1102 0.25195,-0.25 z"/><path d="m 563.91602,2962.543 -0.9961,0 42.42641,42.4264 0.9961,0 z"/><path d="m 562.91992,2962.543 c -0.0476,0 -0.0935,0 -0.13281,-0.041 l 42.42641,42.4264 c 0.0393,0.038 0.0852,0.041 0.13281,0.041 z"/><path d="m 562.78711,2962.502 -1.94141,-1.211 42.42641,42.4264 1.94141,1.211 z"/><path d="m 560.8457,2961.291 -4.67968,0 42.42641,42.4264 4.67968,0 z"/><path d="m 556.16602,2961.291 0,1.4981 42.42641,42.4264 0,-1.4981 z"/><path d="m 556.16602,2962.7891 c 3.7e-4,0.1398 -0.11325,0.2527 -0.25196,0.2519 l 42.42641,42.4264 c 0.13871,8e-4 0.25233,-0.1121 0.25196,-0.2519 z"/><path d="m 555.91406,2963.041 -3.9707,0 42.42641,42.4264 3.9707,0 z"/><path d="M551.94336 2963.041c-.0559 0-.11203-.015-.15625-.053l42.42641 42.4264c.0442.038.10031.053.15625.053zM551.78711 2962.9883l-1.16602-.916 42.42641 42.4264 1.16602.916z"/><path d="M550.62109 2962.0723l-8.24609 2.8203 42.42641 42.4264 8.24609-2.8203zM542.375 2964.8926l.64258.6504 42.42641 42.4264-.64258-.6504z"/><path d="m 543.01758,2965.543 3.41015,0 42.42641,42.4264 -3.41015,0 z"/><path d="m 546.42773,2965.543 c -0.004,-0.042 -0.0156,-0.084 -0.0156,-0.125 l 42.42641,42.4264 c 0,0.042 0.0118,0.083 0.0156,0.125 z"/><path d="M546.41211 2965.418c0-.8946.72858-1.6231 1.62305-1.6231l42.42641 42.4264c-.89447 0-1.62305.7285-1.62305 1.6231zM548.03516 2963.7949c.44763 0 .85381.1838 1.14905.4791l42.42641 42.4264c-.29524-.2953-.70142-.4791-1.14905-.4791z"/><path d="m 549.18421,2964.274 c 0.0877,0.088 0.16553,0.1851 0.23181,0.2905 l 42.42641,42.4264 c -0.0663,-0.1054 -0.14416,-0.2029 -0.23181,-0.2905 z"/><path d="M549.41602 2964.5645l0-.037 42.42641 42.4264 0 .037zM549.41602 2964.5273l.99609 0 42.42641 42.4264-.99609 0zM550.58984 2964.5996l.92969.916 42.42641 42.4264-.92969-.916z"/><path d="m 551.51953,2965.5156 10.16992,0 42.42641,42.4264 -10.16992,0 z"/><path d="m 561.68945,2965.5156 c -0.0113,-0.083 -0.0273,-0.167 -0.0273,-0.2539 l 42.42641,42.4264 c 0,0.087 0.016,0.1708 0.0273,0.2539 z"/><path d="m 561.66211,2965.2617 c 0,-0.9634 0.78645,-1.75 1.75,-1.75 l 42.42641,42.4264 c -0.96355,0 -1.75,0.7866 -1.75,1.75 z"/><path d="m 563.41211,2963.5117 c 0.47924,0 0.9127,0.1954 1.22751,0.5102 l 42.42641,42.4264 c -0.31482,-0.3148 -0.74828,-0.5102 -1.22751,-0.5102 z"/><path d="m 564.63962,2964.0219 c 0.26142,0.2614 0.44103,0.6052 0.4971,0.9879 l 42.42641,42.4264 c -0.0561,-0.3827 -0.23568,-0.7265 -0.4971,-0.9879 z"/><path d="M565.13672 2965.0098l1.53906 0 42.42641 42.4264-1.53906 0zM566.67578 2965.0098l-.006-4.2442 42.42641 42.4264.006 4.2442zM566.66992 2960.7656c0-.068.027-.1324.0742-.1777l42.42641 42.4264c-.0472.045-.0742.1097-.0742.1777zM566.74414 2960.5879l.56836-.5762 42.42641 42.4264-.56836.5762z"/><path d="M567.3125 2960.0117l-2.27344 0 42.42641 42.4264 2.27344 0zM563.41406 2964.0137c-.69331 0-1.24804.5545-1.24804 1.248l42.42641 42.4264c0-.6935.55473-1.248 1.24804-1.248z"/><path d="m 562.16602,2965.2617 c 0,0.3466 0.13871,0.6587 0.36408,0.8841 l 42.42641,42.4264 c -0.22538,-0.2254 -0.36408,-0.5375 -0.36408,-0.8841 z"/><path d="m 562.5301,2966.1458 c 0.22535,0.2253 0.53733,0.364 0.88396,0.364 l 42.42641,42.4264 c -0.34663,0 -0.65862,-0.1387 -0.88396,-0.364 z"/><path d="M563.41406 2966.5098c.69332 0 1.25586-.5549 1.25586-1.2481l42.42641 42.4264c0 .6932-.56254 1.2481-1.25586 1.2481zM564.66992 2965.2617c0-.3448-.13903-.6552-.36403-.8802l42.4264 42.4264c.22501.225.36404.5354.36404.8802z"/><path d="M564.30589 2964.3815c-.22761-.2276-.54318-.3678-.89183-.3678l42.42641 42.4264c.34864 0 .66422.1402.89182.3678zM548.03711 2964.2656c-.62427 0-1.12109.4971-1.12109 1.1211l42.42641 42.4264c0-.624.49682-1.1211 1.12109-1.1211zM546.91602 2965.3867c0 .3127.12459.5938.32739.7966l42.42641 42.4265c-.2028-.2028-.32739-.484-.32739-.7967z"/><path d="M547.24341 2966.1833c.20217.2022.48205.3265.7937.3265l42.42641 42.4264c-.31165 0-.59154-.1243-.7937-.3264zM548.03711 2966.5098c.6243 0 1.13086-.4987 1.13086-1.1231l42.42641 42.4264c0 .6244-.50656 1.1231-1.13086 1.1231z"/><path d="m 549.16797,2965.3867 c 0,-0.3096 -0.1247,-0.588 -0.3266,-0.7899 l 42.4264,42.4264 c 0.20191,0.2019 0.32661,0.4803 0.32661,0.7899 z"/><path d="m 548.84137,2964.5968 c -0.20504,-0.205 -0.48971,-0.3312 -0.80426,-0.3312 l 42.42641,42.4264 c 0.31455,0 0.59921,0.1262 0.80425,0.3312 z"/></g><path style="line-height:normal;text-indent:0;text-align:start;text-decoration-line:none;text-decoration-style:solid;text-decoration-color:#000;text-transform:none;block-progression:tb;white-space:normal;isolation:auto;mix-blend-mode:normal;solid-color:#000;solid-opacity:1" d="m 565.03906,2960.0117 0,0.029 -0.84961,0.8574 -0.0215,1.3946 c 3.8e-4,0.1398 -0.11325,0.2503 -0.25195,0.25 l -0.9961,0 c -0.0476,0 -0.0935,0 -0.13281,-0.041 l -1.94141,-1.211 -4.67968,0 0,1.4981 c 3.7e-4,0.1398 -0.11325,0.2527 -0.25196,0.2519 l -3.9707,0 c -0.0559,0 -0.11203,-0.015 -0.15625,-0.053 l -1.16602,-0.916 -8.24609,2.8203 0.64258,0.6504 3.41015,0 c -0.004,-0.042 -0.0156,-0.084 -0.0156,-0.125 0,-0.8946 0.72858,-1.6231 1.62305,-1.6231 0.58053,0 1.09134,0.3092 1.38086,0.7696 l 0,-0.037 0.99609,0 a 0.25002498,0.25002498 0 0 1 0.17773,0.072 l 0.92969,0.916 10.16992,0 c -0.0113,-0.083 -0.0273,-0.167 -0.0273,-0.2539 0,-0.9634 0.78645,-1.75 1.75,-1.75 0.87719,0 1.60102,0.6545 1.72461,1.4981 l 1.53906,0 -0.006,-4.2442 c 0,-0.068 0.027,-0.1324 0.0742,-0.1777 l 0.56836,-0.5762 -2.27344,0 z m -1.625,4.002 c -0.69331,0 -1.24804,0.5545 -1.24804,1.248 0,0.6932 0.55473,1.2481 1.24804,1.2481 0.69332,0 1.25586,-0.5549 1.25586,-1.2481 0,-0.6935 -0.56254,-1.248 -1.25586,-1.248 z m -15.37695,0.2519 c -0.62427,0 -1.12109,0.4971 -1.12109,1.1211 0,0.6244 0.49682,1.1231 1.12109,1.1231 0.6243,0 1.13086,-0.4987 1.13086,-1.1231 0,-0.624 -0.50656,-1.1211 -1.13086,-1.1211 z" color="#000" enable-background="accumulate" font-family="sans-serif" font-weight="400" overflow="visible"/></g><g fill="#fff" transform="translate(367.49 362.62)"><path d="m -217.99085,709.08341 0.60151,0 -0.15038,0.15243 c -0.0125,0.0124 -0.0196,0.0294 -0.0196,0.047 l 0.002,1.12292 -0.40721,0 c -0.0327,-0.22326 -0.22421,-0.39635 -0.4563,-0.39635 -0.25494,0 -0.46302,0.2081 -0.46302,0.46302 0,0.0228 0.004,0.0447 0.007,0.0667 l -2.6908,-0.004 -0.24598,-0.24236 a 0.06615245,0.06615245 0 0 0 -0.047,-0.0191 l -0.26355,0 0,0.006 c -0.0766,-0.12177 -0.21176,-0.20363 -0.36536,-0.20363 -0.23666,0 -0.42942,0.19278 -0.42942,0.42945 0,0.0113 0.003,0.0219 0.004,0.0331 l -0.90228,0 -0.17001,-0.17209 2.18178,-0.7462 0.30851,0.24236 c 0.0117,0.009 0.0265,0.0142 0.0413,0.0139 l 1.05058,0 c 0.0367,1.3e-4 0.0668,-0.0299 0.0667,-0.0666 l 0,-0.39637 1.23817,0 0.51366,0.32041 c 0.0104,0.007 0.0225,0.0109 0.0351,0.0113 l 0.26355,0 c 0.0367,1.6e-4 0.0668,-0.0294 0.0667,-0.0661 l 0.006,-0.36896 0.22479,-0.22686 z" style="line-height:normal;text-indent:0;text-align:start;text-decoration-line:none;text-decoration-style:solid;text-decoration-color:#000;text-transform:none;block-progression:tb;white-space:normal;isolation:auto;mix-blend-mode:normal;solid-color:#000;solid-opacity:1" color="#000" enable-background="accumulate" font-family="sans-serif" font-weight="400" overflow="visible"/><path d="M-218.4208 710.14225c.18344 0 .33228.14679.33228.33022 0 .18344-.14884.3302-.33228.3302-.18344 0-.33021-.14676-.33021-.3302 0-.18343.14677-.33022.33021-.33022zM-222.48929 710.20892c.16518 0 .29921.13145.29921.29663 0 .16515-.13403.29712-.29921.29712-.16517 0-.29662-.13197-.29662-.29712 0-.16518.13145-.29663.29662-.29663z" style="line-height:normal;text-indent:0;text-align:start;text-decoration-line:none;text-decoration-style:solid;text-decoration-color:#000;text-transform:none;block-progression:tb;white-space:normal;isolation:auto;mix-blend-mode:normal;solid-color:#000;solid-opacity:1" color="#000" enable-background="accumulate" font-family="sans-serif" font-weight="400" overflow="visible"/></g></g></svg>