<svg xmlns="http://www.w3.org/2000/svg" width="56" height="56" viewBox="0 0 56 56"><defs><clipPath id="a" clipPathUnits="userSpaceOnUse"><circle cx="554.844" cy="4474.955" r="28" fill="#e81e63" stroke-linecap="round" stroke-linejoin="round" stroke-width=".265"/></clipPath></defs><g transform="matrix(3.77953 0 0 3.77953 -526.843 -5537.475)"><circle cx="146.802" cy="1472.532" r="7.408" fill="#e81e63"/><g fill="#c51a54" clip-path="url(#a)" transform="matrix(.26458 0 0 .26458 0 288.533)"><g style="line-height:normal;text-indent:0;text-align:start;text-decoration-line:none;text-decoration-style:solid;text-decoration-color:#000;text-transform:none;block-progression:tb;white-space:normal;isolation:auto;mix-blend-mode:normal;solid-color:#000;solid-opacity:1" stroke-linecap="round" stroke-linejoin="round" stroke-width=".265" color="#000" font-family="sans-serif" font-weight="400"><path d="M564.5 4471.1055l-.98828.9961 70.71068 70.7107.98828-.9961zM563.36328 4472.4492l-.0156 1.0039 70.71068 70.7107.0156-1.0039zM563.34766 4473.4531l-.36133 0 70.71068 70.7107.36133 0zM562.98633 4473.4531l-1.875-1.1738 70.71068 70.7107 1.875 1.1738zM560.8457 4472.2051l-5.0039 0 70.71068 70.7107 5.0039 0zM555.3457 4472.707l0 1.2481 70.71068 70.7107 0-1.2481z"/><path d="m 555.3457,4473.9551 -3.29882,0 70.71068,70.7107 3.29882,0 z"/><path d="M552.04688 4473.9551l-1.14454-.8946 70.71068 70.7107 1.14454.8946zM550.42969 4472.9805l-8.74805 2.9961 70.71068 70.7107 8.74805-2.9961zM541.49023 4476.8027l.9961 1.0039 70.71068 70.7107-.9961-1.0039z"/><path d="m 542.8418,4477.9551 3.47851,0 70.71068,70.7107 -3.47851,0 z"/><path d="m 546.32031,4477.9551 c 0.0892,0.1655 0.20193,0.3167 0.3337,0.4485 l 70.71068,70.7106 c -0.13178,-0.1317 -0.24451,-0.2829 -0.3337,-0.4484 z"/><path d="m 546.65401,4478.4036 c 0.33726,0.3372 0.79928,0.5476 1.31083,0.5476 l 70.71068,70.7107 c -0.51155,0 -0.97357,-0.2104 -1.31083,-0.5477 z"/><path d="m 547.96484,4478.9512 c 1.02962,0 1.875,-0.8455 1.875,-1.875 l 70.71068,70.7107 c 0,1.0295 -0.84538,1.875 -1.875,1.875 z"/><path d="m 549.83984,4477.0762 c 0,-0.042 -0.0118,-0.084 -0.0156,-0.125 l 70.71068,70.7107 c 0.004,0.042 0.0156,0.083 0.0156,0.125 z"/><path d="m 549.82422,4476.9512 0.30859,0 70.71068,70.7107 -0.30859,0 z"/><path d="M550.13281 4476.9512l.85742.8418 70.71068 70.7107-.85742-.8418zM551.34375 4477.9395l10.26953 0 70.71068 70.7107-10.26953 0z"/><path d="m 561.61328,4477.9395 c 0.0902,0.1562 0.20042,0.2996 0.32714,0.4263 l 70.71067,70.7107 c -0.12671,-0.1267 -0.23693,-0.2701 -0.32713,-0.4263 z"/><path d="m 561.94042,4478.3658 c 0.36015,0.3602 0.85356,0.5854 1.39942,0.5854 l 70.71068,70.7107 c -0.54586,0 -1.03927,-0.2253 -1.39943,-0.5854 z"/><path d="m 563.33984,4478.9512 c 0.9233,0 1.69894,-0.6404 1.92578,-1.4961 l 70.71068,70.7107 c -0.22684,0.8557 -1.00248,1.4961 -1.92578,1.4961 z"/><path d="M565.26562 4477.4551l1.5879 0 70.71068 70.7107-1.5879 0zM567.34766 4476.9531l-.008-4.289 70.71068 70.7107.008 4.289zM567.33984 4472.6641l.85743-.8555 70.71068 70.7107-.85743.8555z"/><path d="M567.8418 4470.9512l-2.98047 0 70.71068 70.7107 2.98047 0zM564.86133 4470.9512l-.002 0 70.71068 70.7107.002 0z"/></g><path d="m 564.85938,4470.9512 a 0.50004993,0.50004993 0 0 0 -0.35938,0.1543 l -0.98828,0.9961 a 0.50004993,0.50004993 0 0 0 -0.14844,0.3476 l -0.0156,1.0039 -0.36133,0 -1.875,-1.1738 a 0.50004993,0.50004993 0 0 0 -0.26563,-0.074 l -5.0039,0 a 0.50004993,0.50004993 0 0 0 -0.4961,0.5019 l 0,1.2481 -3.29882,0 -1.14454,-0.8946 a 0.50004993,0.50004993 0 0 0 -0.47265,-0.08 l -8.74805,2.9961 a 0.50004993,0.50004993 0 0 0 -0.19141,0.8261 l 0.9961,1.0039 a 0.50004993,0.50004993 0 0 0 0.35547,0.1485 l 3.47851,0 c 0.31748,0.5892 0.93311,0.9961 1.64453,0.9961 1.02962,0 1.875,-0.8455 1.875,-1.875 0,-0.042 -0.0118,-0.084 -0.0156,-0.125 l 0.30859,0 0.85742,0.8418 a 0.50004993,0.50004993 0 0 0 0.35352,0.1465 l 10.26953,0 c 0.34658,0.6001 0.98865,1.0117 1.72656,1.0117 0.9233,0 1.69894,-0.6404 1.92578,-1.4961 l 1.5879,0 a 0.50004993,0.50004993 0 0 0 0.49414,-0.502 l -0.008,-4.289 0.85743,-0.8555 a 0.50004993,0.50004993 0 0 0 -0.35547,-0.8574 l -2.98047,0 -0.002,0 z" style="line-height:normal;text-indent:0;text-align:start;text-decoration-line:none;text-decoration-style:solid;text-decoration-color:#000;text-transform:none;block-progression:tb;white-space:normal;isolation:auto;mix-blend-mode:normal;solid-color:#000;solid-opacity:1" color="#000" enable-background="accumulate" font-family="sans-serif" font-weight="400" overflow="visible"/></g><g stroke="#fff" transform="translate(143.23 1176.59)"><path style="line-height:normal;text-indent:0;text-align:start;text-decoration-line:none;text-decoration-style:solid;text-decoration-color:#000;text-transform:none;block-progression:tb;white-space:normal;isolation:auto;mix-blend-mode:normal;solid-color:#000;solid-opacity:1" fill="#fff" stroke="none" d="m 6.2224386,294.88281 a 0.13230489,0.13230489 0 0 0 -0.095602,0.0393 l -0.2614824,0.26562 a 0.13230489,0.13230489 0 0 0 -0.039275,0.0894 l -0.00362,0.26768 -0.096118,0 -0.4960938,-0.31059 a 0.13230489,0.13230489 0 0 0 -0.070281,-0.0191 l -1.3239486,0 a 0.13230489,0.13230489 0 0 0 -0.1307412,0.13073 l 0,0.33177 -0.8733315,0 -0.3028263,-0.23615 a 0.13230489,0.13230489 0 0 0 -0.1250553,-0.0217 l -2.3140725,0.79325 a 0.13230489,0.13230489 0 0 0 -0.05115984,0.21857 l 0.26406742,0.26562 a 0.13230489,0.13230489 0 0 0 0.0935355,0.0393 l 0.92087442,0 c 0.084082,0.15552 0.2466155,0.26355 0.4345967,0.26355 0.2724203,0 0.4960938,-0.22368 0.4960938,-0.49609 0,-0.0113 -0.00286,-0.022 -0.00362,-0.0331 l 0.08165,0 0.2268591,0.22273 a 0.13230489,0.13230489 0 0 0 0.093533,0.0367 l 2.7181813,0.004 c 0.092019,0.15767 0.261366,0.26562 0.4557872,0.26562 0.24452,0 0.4502521,-0.1697 0.5100453,-0.39637 l 0.4196133,0 a 0.13230489,0.13230489 0 0 0 0.1307412,-0.1328 l -0.00207,-1.13689 0.2268591,-0.22479 a 0.13230489,0.13230489 0 0 0 -0.094051,-0.22635 l -0.7890987,0 z" color="#000" enable-background="accumulate" font-family="sans-serif" font-weight="400" overflow="visible"/><path style="line-height:normal;text-indent:0;text-align:start;text-decoration-line:none;text-decoration-style:solid;text-decoration-color:#000;text-transform:none;block-progression:tb;white-space:normal;isolation:auto;mix-blend-mode:normal;solid-color:#000;solid-opacity:1" fill="#e81e63" stroke="none" d="m 6.2772153,295.14843 0.4159939,0 -0.038756,0.0393 a 0.13230489,0.13230489 0 0 0 -0.039275,0.0935 l 0.00207,1.05677 -0.2868057,0 c -0.059627,-0.22688 -0.2653533,-0.39634 -0.5100453,-0.39634 -0.2905099,0 -0.528881,0.2382 -0.5291667,0.52863 l -2.5920915,-0.004 -0.2242741,-0.22273 a 0.13230489,0.13230489 0 0 0 -0.094051,-0.0372 l -0.2351299,0 c -0.090866,-0.11975 -0.2330689,-0.19894 -0.3937742,-0.19894 -0.2611173,0 -0.47498,0.20606 -0.4924743,0.46302 l -0.80822011,0 -0.0759645,-0.0765 2.04638561,-0.70072 0.2831888,0.22066 a 0.13230489,0.13230489 0 0 0 0.080097,0.0274 l 1.0510998,0 a 0.13230489,0.13230489 0 0 0 0.1328076,-0.13333 l 0,-0.32969 1.1523849,0 0.4981602,0.31056 a 0.13230489,0.13230489 0 0 0 0.070281,0.0191 l 0.2635488,0 a 0.13230489,0.13230489 0 0 0 0.1328076,-0.12869 l 0.00362,-0.34364 0.1875843,-0.18759 z" color="#000" enable-background="accumulate" font-family="sans-serif" font-weight="400" overflow="visible"/><path style="line-height:normal;text-indent:0;text-align:start;text-decoration-line:none;text-decoration-style:solid;text-decoration-color:#000;text-transform:none;block-progression:tb;white-space:normal;isolation:auto;mix-blend-mode:normal;solid-color:#000;solid-opacity:1" fill="#e81e63" stroke="none" d="M5.8203963 296.20729c.1476904 0 .2656152.11586.2656152.26355 0 .14769-.1179248.26562-.2656152.26562-.1476931 0-.2635515-.11793-.2635515-.26562 0-.14769.1158584-.26355.2635515-.26355zM1.7519085 296.27137c.1294289 0 .232545.10311.232545.23255 0 .1294-.1031161.23254-.232545.23254-.1294262 0-.2304759-.10314-.2304759-.23254 0-.12944.1010497-.23255.2304759-.23255z" color="#000" enable-background="accumulate" font-family="sans-serif" font-weight="400" overflow="visible"/></g></g></svg>