<svg xmlns="http://www.w3.org/2000/svg" width="48" height="48" viewBox="0 0 48 48"><g transform="translate(-3597.801 -343.283)"><path fill="#e81e63" d="m 3645.801,367.28265 a 24,24 0 0 0 -24,-24 24,24 0 0 0 -24,24 24,24 0 0 0 24,24 24,24 0 0 0 24,-24 z"/><g fill="#fff" transform="translate(977.852 41.67)"><path d="m 2635.9492,-693.75 a 1.5,1.5 0 0 0 -1.5,1.5 1.5,1.5 0 0 0 1.5,1.5 1.5,1.5 0 0 0 1.5,-1.5 1.5,1.5 0 0 0 -1.5,-1.5 z m 0,0.75 a 0.75005817,0.75005817 0 0 1 0.75,0.75 0.75005817,0.75005817 0 0 1 -0.75,0.75 0.75005817,0.75005817 0 0 1 -0.75,-0.75 0.75005817,0.75005817 0 0 1 0.75,-0.75 z" transform="translate(0 1020.362)"/><path fill-rule="evenodd" d="m 2645.873,321.62197 -4.4238,0.44531 -5,2.01367 -6.5,0.50391 0.4024,2.02734 c 0.059,0.297 0.291,0.52789 0.5879,0.58789 l 2.0097,0.4043 0.666,0.11133 c 0.1919,-1.11534 1.1681,-1.97852 2.334,-1.97852 1.3013,0 2.375,1.0737 2.375,2.375 0,0.13264 -0.018,0.26166 -0.039,0.38867 l 0.664,0.11133 9.5,0 0.6817,0 c -0.035,-0.16149 -0.057,-0.32869 -0.057,-0.5 0,-1.3013 1.0737,-2.375 2.375,-2.375 1.3013,0 2.375,1.0737 2.375,2.375 0,0.17131 -0.021,0.33851 -0.057,0.5 l 0.6816,0 3.5,0 0,-1.7793 c 0,-0.4392 -0.2855,-0.82703 -0.7051,-0.95703 l -5.7949,-1.79492 -4.4824,-2.25586 c -0.3376,-0.1702 -0.7177,-0.24112 -1.0938,-0.20312 z"/><path d="m 2651.4492,326.6122 a 1.5,1.5 0 0 0 -1.5,1.5 1.5,1.5 0 0 0 1.5,1.5 1.5,1.5 0 0 0 1.5,-1.5 1.5,1.5 0 0 0 -1.5,-1.5 z m 0,0.75 a 0.75005817,0.75005817 0 0 1 0.75,0.75 0.75005817,0.75005817 0 0 1 -0.75,0.75 0.75005817,0.75005817 0 0 1 -0.75,-0.75 0.75005817,0.75005817 0 0 1 0.75,-0.75 z"/></g></g></svg>