<svg xmlns="http://www.w3.org/2000/svg" width="48" height="48" viewBox="0 0 48 48"><g transform="translate(-3597.801 5.428)"><path fill="#e81e63" d="m 3645.801,18.571973 a 24,24 0 0 0 -24,-24 24,24 0 0 0 -24,24 24,24 0 0 0 24,24.000005 24,24 0 0 0 24,-24.000005 z"/><g fill="#fff" transform="translate(936.301 -602.165)"><path fill-rule="evenodd" d="m 2685.5,-407.75 c -0.1267,0 -0.2534,0.01 -0.3789,0.0293 l -5.3731,0.82422 c -0.6441,0.0987 -1.2235,0.44461 -1.6152,0.96484 l -2.3769,3.15625 -1.7852,-0.17773 a 1,1 0 0 0 -0.8066,0.28906 l -0.3711,0.37109 a 0.99999999,0.99999999 0 0 0 -0.293,0.70703 l 0,5.17188 a 0.96680751,0.96680751 0 0 0 0.2734,0.6875 0.99999999,0.99999999 0 0 0 0.543,0.27929 L 2676,-395 l 19,0 2.6836,-0.44727 a 0.95706984,0.95706984 0 0 0 0.5234,-0.25976 0.99999999,0.99999999 0 0 0 0.293,-0.70703 l 0,-5.46875 a 1,1 0 0 0 -0.5527,-0.89453 l -0.1875,-0.0937 a 1,1 0 0 0 -0.5469,-0.0996 l -1.9688,0.19726 -2.3769,-3.1582 c -0.3917,-0.52023 -0.9711,-0.86617 -1.6152,-0.96484 l -5.3731,-0.82422 c -0.1255,-0.0192 -0.2522,-0.0293 -0.3789,-0.0293 z m -0.2266,1.01758 c 0.1507,-0.0231 0.3025,-0.0231 0.4532,0 l 5.373,0.82422 c 0.3868,0.0593 0.7343,0.26664 0.9688,0.57812 l 2.0117,2.67188 -1.5801,0.1582 -7,-0.5 -7,0.5 -1.5801,-0.1582 2.0117,-2.67188 c 0.2345,-0.31148 0.582,-0.51886 0.9688,-0.57812 z M 2674.5,-400.5 l 2.5,0.5 0.5,2.5 -2.5,-0.5 z m 5.4746,0 a 0.50005,0.50005 0 0 1 0.021,0 0.50005,0.50005 0 0 1 0.049,0.002 l 5.4551,0.4961 5.4551,-0.4961 a 0.5000788,0.5000788 0 1 1 0.09,0.9961 l -5.5,0.5 a 0.50005,0.50005 0 0 1 -0.09,0 l -5.5,-0.5 a 0.50005,0.50005 0 0 1 0.019,-0.99805 z m 16.5254,0 -0.5,2.5 -2.5,0.5 0.5,-2.5 z m -16.5254,2.5 a 0.50005,0.50005 0 0 1 0.021,0 0.50005,0.50005 0 0 1 0.049,0.002 l 5.4551,0.4961 5.4551,-0.4961 a 0.5000788,0.5000788 0 1 1 0.09,0.9961 l -5.5,0.5 a 0.50005,0.50005 0 0 1 -0.09,0 l -5.5,-0.5 a 0.50005,0.50005 0 0 1 0.019,-0.99805 z" transform="translate(0 1020.362)"/><path fill-rule="evenodd" d="M2673.5001 625.8622l.01 1.9994a1.0029378 1.0042882 0 001.0029 1.0006l1.4923 0a.9948605.99620002 0 00.9948-1.0006l-.01-1.5035M2697.5 625.8622l-.01 1.9994a1.0029378 1.0042882 0 01-1.003 1.0006l-1.4922 0A.9948605.99620002 0 012694 627.8616l.01-1.5035"/></g></g></svg>