<svg xmlns="http://www.w3.org/2000/svg" width="32" height="32" viewBox="0 0 8.467 8.467"><g transform="translate(0 -288.533)"><path fill="#3b3c3d" fill-rule="evenodd" d="m 3.785592,291.65402 c -0.1019969,0.004 -0.2033058,0.018 -0.3023129,0.0429 l -2.1192596,0.5297 -0.66145839,0 0.0454819,0.13591 c 0.0137583,0.0415 0.0206375,0.15111 0.0206375,0.19481 l 0,0.46303 c 1.8521e-4,0.323 0.25794231,0.58695 0.58086631,0.59478 -0.032491,-0.0822 -0.0517,-0.17082 -0.0517,-0.26406 0,-0.39952 0.3281362,-0.7276 0.7276042,-0.7276 0.3994943,0 0.7276041,0.32811 0.7276041,0.7276 0,0.0934 -0.01905,0.18225 -0.051673,0.26459 l 2.9476436,0 c -0.032623,-0.0823 -0.0517,-0.17116 -0.0517,-0.26459 0,-0.39952 0.3281363,-0.7276 0.7276042,-0.7276 0.3994944,0 0.7276042,0.32811 0.7276042,0.7276 0,0.0934 -0.01905,0.18225 -0.051673,0.26459 l 0.514694,0 c 0.1433777,-3e-5 0.2569898,-0.121 0.2480468,-0.26408 l -0.00714,-0.11885 c -0.024077,-0.38839 -0.3285861,-0.7669 -0.7162271,-0.80098 l -1.5751176,-0.13901 -0.9699625,-0.48474 c -0.2198687,-0.10996 -0.463841,-0.16291 -0.7095067,-0.15399 z"/><path fill="#3b3c3d" d="M2.0254778 292.82192c-.2922323 0-.5291667.23691-.5291667.52916 0 .29224.2369344.52917.5291667.52917.2922588 0 .5291667-.23693.5291667-.52917 0-.29225-.2369079-.52916-.5291667-.52916zm0 .33073c.1095904 0 .1984375.0888.1984375.19843 0 .1096-.088847.19844-.1984375.19844-.1095904 0-.1984375-.0888-.1984375-.19844 0-.10959.088847-.19843.1984375-.19843zM6.3249571 292.82192c-.2922323 0-.5291667.23691-.5291667.52916 0 .29224.2369344.52917.5291667.52917.2922587 0 .5291667-.23693.5291667-.52917 0-.29225-.236908-.52916-.5291667-.52916zm0 .33073c.1095904 0 .1984375.0888.1984375.19843 0 .1096-.088847.19844-.1984375.19844-.1095904 0-.1984375-.0888-.1984375-.19844 0-.10959.088847-.19843.1984375-.19843z"/></g></svg>